<?xml version="1.0" encoding="utf-8"?>
<!-- Generator: Adobe Illustrator 24.2.1, SVG Export Plug-In . SVG Version: 6.00 Build 0)  -->
<svg version="1.1" id="Layer_1" xmlns="http://www.w3.org/2000/svg" xmlns:xlink="http://www.w3.org/1999/xlink" x="0px" y="0px"
	 viewBox="0 0 1080 1080" style="enable-background:new 0 0 1080 1080;" xml:space="preserve">
<style type="text/css">
	.st0{fill:none;}
	.st1{fill:#2981C1;}
	.st2{opacity:0.5;}
	.st3{fill:#98A2D1;}
	.st4{fill:#7982A8;}
	.st5{fill:#5A607F;}
	.st6{fill:#393D55;}
	.st7{fill:#2C5E8F;}
	.st8{fill:#14395F;}
	.st9{fill:#001431;}
	.st10{fill:#F9A01B;}
	.st11{fill:#C37F13;}
	.st12{fill:#905D00;}
	.st13{fill:#613B00;}
	.st14{fill:#BA334D;}
	.st15{fill:#912339;}
	.st16{fill:#5E081D;}
	.st17{fill:#450008;}
	.st18{fill:none;stroke:#52103B;stroke-miterlimit:10;}
</style>
<g>
	<path class="st0" d="M3703.9,4199"/>
</g>
<path class="st1" d="M-65.1-7.4l-0.2,207.9l-0.2,207.9l-0.2,207.9L-66,824.2l-0.2,207.9l-0.2,207.9l-0.2,207.9l-0.2,207.9
	c116.2,0.1,229.8-11.3,339.6-33.2s215.8-54.3,316.8-96.1c101-41.8,197.1-93,287.1-152.5s173.9-127.3,250.5-202.3
	c76.6-75,146-157.3,206.9-245.6c61-88.4,113.5-182.9,156.5-282.5s76.4-204.2,99.1-312.8s34.7-221.1,34.8-336.5l-211.2-0.2L1202-6.1
	L990.8-6.3L779.6-6.5L568.4-6.8L357.3-7L146.1-7.2L-65.1-7.4z"/>
<g class="st2">
	<path class="st3" d="M2575.8,169.5c-55.8,0-110.3,5.7-163,16.5c-52.6,10.8-103.4,26.7-151.7,47.2c-48.3,20.5-94.3,45.6-137.3,74.7
		c-43,29.1-83,62.2-119.6,98.9c-36.5,36.6-69.6,76.8-98.6,119.8c-29,43.1-54,89.1-74.5,137.5c-20.4,48.4-36.3,99.2-47,151.9
		c-10.8,52.7-16.4,107.2-16.4,163l101,0l101,0l101,0l101,0l101,0l101,0l101,0l101,0l0-101.2l0-101.2l0-101.2l0-101.2l0-101.2
		l0-101.2l0-101.2L2575.8,169.5z"/>
	<path class="st4" d="M2575.8,575.4c-27.9,0-55.1,2.8-81.4,8.2c-26.3,5.4-51.6,13.3-75.7,23.5s-47,22.7-68.3,37.1
		c-21.4,14.5-41.3,31-59.4,49.2c-18.2,18.2-34.6,38.2-49,59.7c-14.4,21.5-26.8,44.4-36.9,68.6c-10.1,24.2-18,49.5-23.3,75.8
		c-5.3,26.3-8.1,53.5-8.1,81.5l50.3,0l50.3,0l50.3,0l50.3,0l50.3,0l50.3,0l50.3,0l50.3,0l0-50.4v-50.4l0-50.4l0-50.4l0-50.4v-50.4
		l0-50.4L2575.8,575.4z"/>
	<path class="st5" d="M2575.8,778.4c-14,0-27.5,1.4-40.6,4.2c-13.1,2.7-25.7,6.8-37.6,11.9c-12,5.2-23.3,11.5-33.9,18.8
		s-20.4,15.6-29.4,24.8c-9,9.2-17.1,19.2-24.1,29.8c-7.1,10.7-13.2,22.1-18.2,34c-5,11.9-8.8,24.4-11.4,37.3
		c-2.6,12.9-4,26.2-4,39.7l24.9,0l24.9,0l24.9,0l24.9,0l24.9,0l24.9,0l24.9,0l24.9,0v-25.1l0-25.1v-25.1v-25.1l0-25.1v-25.1v-25.1
		L2575.8,778.4z"/>
	<path class="st6" d="M2575.8,879.9c-6.8,0-13.4,0.7-19.7,2s-12.5,3.3-18.4,5.8c-5.9,2.5-11.4,5.6-16.6,9.2
		c-5.2,3.6-10,7.7-14.5,12.2c-4.4,4.5-8.4,9.4-11.9,14.7c-3.5,5.3-6.5,10.9-9,16.8c-2.5,5.9-4.4,12.1-5.7,18.5c-1.3,6.4-2,13-2,19.8
		h12.2l12.2,0l12.2,0h12.2l12.2,0h12.2l12.2,0l12.2,0v-12.4v-12.4v-12.4l0-12.4V917v-12.4v-12.4V879.9z"/>
</g>
<path class="st7" d="M-65.1-7.4l-0.1,104l-0.1,104l-0.1,104l-0.1,104l-0.1,104l-0.1,104l-0.1,104l-0.1,104
	c58.1,0.1,114.9-5.7,169.8-16.6c54.9-11,107.9-27.2,158.4-48.1c50.5-20.9,98.6-46.5,143.6-76.2c45-29.7,86.9-63.6,125.2-101.2
	s73-78.6,103.5-122.8c30.5-44.2,56.7-91.4,78.2-141.2c21.5-49.8,38.2-102.1,49.6-156.4c11.4-54.3,17.3-110.6,17.4-168.3L674.1-6.6
	L568.5-6.8L462.9-6.9L357.3-7L251.7-7.1L146.1-7.2L40.5-7.3L-65.1-7.4z"/>
<path class="st8" d="M-65.1-7.4l-0.1,51.6l-0.1,51.6l-0.1,51.6l-0.1,51.6l-0.1,51.6l-0.1,51.6l-0.1,51.6l-0.1,51.6
	c29.1,0,57.5-2.8,84.9-8.2c27.4-5.4,53.9-13.5,79.2-23.8c25.3-10.4,49.3-23,71.8-37.8c22.5-14.7,43.5-31.6,62.6-50.2
	s36.5-39,51.7-60.9s28.4-45.4,39.1-70.1c10.7-24.7,19.1-50.7,24.8-77.6s8.7-54.9,8.7-83.5L304.5-7l-52.8-0.1l-52.8-0.1l-52.8-0.1
	L93.3-7.3L40.5-7.3l-52.8-0.1L-65.1-7.4z"/>
<path class="st9" d="M-65.1-7.4l0,25.4l0,25.4l0,25.4l0,25.4l0,25.4l0,25.4l0,25.4l0,25.4c14.5,0,28.7-1.4,42.5-4.1
	s27-6.7,39.6-11.9s24.6-11.5,35.9-18.8c11.2-7.3,21.7-15.6,31.3-24.8c9.6-9.2,18.2-19.3,25.9-30.1s14.2-22.3,19.6-34.4
	c5.4-12.1,9.5-24.8,12.4-38c2.8-13.2,4.3-26.8,4.4-40.7l-26.4,0l-26.4,0l-26.4,0l-26.4,0l-26.4,0l-26.4,0l-26.4,0L-65.1-7.4z"/>
<path class="st10" d="M4706.5,5948c-1.4-324.6-36.1-641.8-100.8-948.4c-64.8-306.6-159.6-602.6-281.2-884.6
	s-270.2-550.3-442.2-801.4c-172.1-251.1-367.8-485.1-583.8-698.6c-216-213.6-452.4-406.8-706-576.4s-524.2-315.6-808.7-434.7
	c-284.5-119.1-582.9-211.3-892-273.4s-628.8-94.1-955.9-92.7l2.5,591.3l2.5,591.3l2.5,591.3l2.5,591.3l2.5,591.3l2.5,591.3
	l2.5,591.3l2.5,591.3l593.8-2.5l593.8-2.5l593.8-2.5l593.8-2.5l593.8-2.5l593.8-2.5l593.8-2.5L4706.5,5948z"/>
<path class="st11" d="M2338.7,5958c-0.7-163.6-18.2-323.1-50.8-477c-32.6-153.9-80.3-302.2-141.5-443.4
	c-61.2-141.2-135.8-275.2-222.3-400.5c-86.5-125.3-184.8-241.9-293.3-348.2s-227.2-202.4-354.4-286.6
	c-127.2-84.2-262.9-156.6-405.5-215.7c-142.6-59-292.1-104.7-446.8-135.4s-314.7-46.5-478.2-45.8l1.3,295.3l1.3,295.3l1.3,295.3
	l1.3,295.3l1.3,295.3l1.3,295.3l1.3,295.3l1.3,295.3l297.8-1.3l297.8-1.3l297.8-1.3l297.8-1.3l297.8-1.3l297.8-1.3l297.8-1.3
	L2338.7,5958z"/>
<path class="st12" d="M1154.8,5963.1c-0.3-80.5-9-159.3-25.3-235.5c-16.2-76.2-40-149.8-70.6-220.1s-67.9-137-111.1-199.6
	c-43.3-62.6-92.5-121-146.9-174.3c-54.4-53.3-114-101.6-177.9-143.9c-63.9-42.4-132.3-78.9-204.1-108.7s-147.4-52.9-225.6-68.4
	C115,4797,33.9,4789-49.1,4789.4l0.6,147.3l0.6,147.3l0.6,147.3l0.6,147.3l0.6,147.3l0.6,147.3l0.6,147.3l0.6,147.3l149.9-0.6
	l149.9-0.6l149.9-0.6l149.9-0.6l149.9-0.6l149.9-0.6l149.9-0.6L1154.8,5963.1z"/>
<path class="st13" d="M562.8,5965.6c-0.2-40.3-4.5-79.6-12.5-117.6c-8.1-38-19.9-74.7-35.1-109.7s-33.9-68.3-55.5-99.4
	c-21.7-31.1-46.3-60.2-73.7-86.7s-57.4-50.5-89.7-71.5s-66.9-39.1-103.4-53.9c-36.5-14.8-75-26.2-115-33.9s-81.6-11.7-124.4-11.5
	l0.3,73.4l0.3,73.4l0.3,73.4l0.3,73.4l0.3,73.4l0.3,73.4l0.3,73.4l0.3,73.4l75.9-0.3l75.9-0.3l75.9-0.3l75.9-0.3l75.9-0.3l75.9-0.3
	l75.9-0.3L562.8,5965.6z"/>
<g>
	<path class="st0" d="M1428.1,1896.1"/>
</g>
<g>
	<g>
		<path class="st14" d="M3778.7,5934.5c0.8-115.6,13.3-228.3,36.4-336.9c23.1-108.7,56.9-213.3,100.1-312.9
			c43.2-99.6,95.9-194.1,156.9-282.3s130.4-170.4,206.9-245.3c76.5-74.8,160.2-142.4,249.9-201.6c89.7-59.2,185.5-110.1,286.1-151.5
			c100.6-41.4,206.2-73.4,315.4-94.8c109.3-21.4,222.3-32.3,337.8-31.5l-1.4,208.5l-1.4,208.5l-1.4,208.5l-1.4,208.5l-1.4,208.5
			l-1.4,208.5l-1.4,208.5l-1.4,208.5l-209.8-1.4l-209.8-1.4l-209.8-1.4l-209.8-1.4l-209.8-1.4l-209.8-1.4l-209.8-1.4L3778.7,5934.5z
			"/>
		<path class="st15" d="M4620.5,5940c0.4-57.4,6.5-113.3,17.9-167.3c11.4-54,28.1-106,49.4-155.5c21.4-49.5,47.4-96.5,77.6-140.4
			c30.2-43.9,64.6-84.8,102.6-122c38-37.2,79.6-70.9,124.3-100.4c44.7-29.5,92.4-54.8,142.7-75.4s103.1-36.5,157.9-47.2
			c54.8-10.7,111.6-16.1,169.8-15.7l-0.7,103.7l-0.7,103.7l-0.7,103.7l-0.7,103.7l-0.7,103.7l-0.7,103.7l-0.7,103.7l-0.7,103.7
			l-104.6-0.7l-104.6-0.7l-104.6-0.7l-104.6-0.7l-104.6-0.7l-104.6-0.7l-104.6-0.7L4620.5,5940z"/>
		<path class="st16" d="M5041.4,5942.8c0.2-28.2,3.2-55.8,8.9-82.4s13.9-52.3,24.4-76.7s23.5-47.7,38.4-69.4
			c15-21.7,32-41.9,50.8-60.4c18.8-18.4,39.5-35.1,61.7-49.7c22.2-14.6,45.9-27.2,71-37.4s51.3-18.1,78.7-23.4s55.7-8,84.8-7.8
			l-0.3,51.3l-0.3,51.3l-0.3,51.3l-0.3,51.3l-0.3,51.3l-0.3,51.3l-0.3,51.3l-0.3,51.3l-52-0.3l-52-0.3l-52-0.3l-52-0.3l-52-0.3
			l-52-0.3l-52-0.3L5041.4,5942.8z"/>
		<path class="st17" d="M5251.9,5944.2c0.1-13.2,1.5-26.3,4.2-39c2.7-12.7,6.6-25.1,11.6-36.9c5-11.8,11.2-23.2,18.4-33.8
			c7.2-10.7,15.4-20.7,24.6-29.8c9.2-9.2,19.3-17.5,30.2-24.8c10.9-7.3,22.7-13.7,35.2-18.8c12.5-5.2,25.7-9.2,39.5-11.9
			c13.8-2.7,28.3-4.1,43.3-4l-0.2,25.1l-0.2,25.1l-0.2,25.1l-0.2,25.1l-0.2,25.1l-0.2,25.1l-0.2,25.1l-0.2,25.1l-25.7-0.2l-25.7-0.2
			l-25.7-0.2l-25.7-0.2l-25.7-0.2l-25.7-0.2l-25.7-0.2L5251.9,5944.2z"/>
	</g>
</g>
<path class="st18" d="M1296.1,4429.4"/>
</svg>
