<?xml version="1.0" encoding="utf-8"?>
<!-- Generator: Adobe Illustrator 24.2.1, SVG Export Plug-In . SVG Version: 6.00 Build 0)  -->
<svg version="1.1" id="Layer_1" xmlns="http://www.w3.org/2000/svg" xmlns:xlink="http://www.w3.org/1999/xlink" x="0px" y="0px"
	 viewBox="0 0 381 409.5" style="enable-background:new 0 0 381 409.5;" xml:space="preserve">
<style type="text/css">
	.st0{fill:#0071BC;}
	.st1{fill:#29ABE2;}
	.st2{fill:#2686C6;}
	.st3{fill:#F7931E;}
</style>
<g>
	<polygon class="st0" points="337.8,262.1 350.6,346.4 292,300.2 	"/>
	<polygon class="st1" points="107,18.5 157.8,44 157.9,18.9 	"/>
	<polygon class="st0" points="106.9,18.5 107,49.7 157.8,44 	"/>
	<polygon class="st2" points="157.8,44 157.9,78.3 107,49.7 	"/>
	<polygon class="st1" points="107,49.7 157.9,78.3 106.9,124.2 	"/>
	<polygon class="st0" points="106.9,124.2 157.8,124.2 157.9,78.3 	"/>
	<polygon class="st2" points="106.9,124.2 106.9,220.1 157.8,124.2 	"/>
	<polygon class="st1" points="157.8,124.2 157.8,249.6 107,220 	"/>
	<polygon class="st0" points="107,220 107.2,300.5 157.8,249.6 	"/>
	<polyline class="st2" points="157.8,249.6 157.6,300 107.2,300.5 	"/>
	<polygon class="st1" points="107.2,300.5 157.7,314.5 157.6,300 	"/>
	<polyline class="st2" points="157.7,314.5 157.5,343.1 107.2,300.5 	"/>
	<polyline class="st1" points="107.2,300.5 124.5,376.5 157.5,343.1 	"/>
	<polygon class="st1" points="80.8,339.5 12.8,332.9 54.7,379.4 	"/>
	<polyline class="st2" points="124.5,376.5 54.7,379.4 80.8,339.5 	"/>
	<polygon class="st0" points="80.8,339.5 107.2,300.5 124.5,376.5 	"/>
	<polygon class="st0" points="12.8,332.9 13.6,376.7 54.7,379.4 	"/>
	<g>
		<polygon class="st0" points="201.4,14.7 201.4,67.5 252,66.2 		"/>
		<polygon class="st2" points="201.4,14.7 283.6,14.8 252,66.2 		"/>
		<polygon class="st1" points="283.6,14.8 252,66.2 303.3,66.2 		"/>
		<polygon class="st2" points="283.6,14.8 330.1,14.2 303.3,66.2 		"/>
		<polygon class="st0" points="330.1,14.2 345.9,35.3 303.3,66.2 		"/>
		<polygon class="st2" points="345.9,35.3 303.3,66.2 356.2,99.9 		"/>
		<polygon class="st1" points="345.9,35.3 356.7,57.2 356.2,99.9 		"/>
		<polygon class="st1" points="303.3,66.2 303.8,123.9 356.2,99.9 		"/>
		<polygon class="st0" points="303.8,123.9 356.2,99.9 357.6,185 		"/>
		<polygon class="st2" points="303.8,123.9 303.7,155.5 357.6,185 		"/>
		<polyline class="st1" points="201.2,174.4 251.6,144.1 252,66.2 		"/>
		<polygon class="st2" points="252,66.2 201.4,67.5 201.2,174.4 		"/>
		<polyline class="st0" points="201.2,174.4 252,171.1 251.6,144.1 		"/>
		<path class="st3" d="M252,171.1"/>
		<path class="st3" d="M252,171.1"/>
		<polygon class="st1" points="252,171.1 251.6,220.7 201.1,174.4 		"/>
		<polygon class="st2" points="201.2,174.4 201.4,282 251.6,220.7 		"/>
		<polygon class="st0" points="251.6,220.7 251.9,324.7 201.4,282 		"/>
		<polygon class="st1" points="201.4,282 201.4,355.5 251.9,324.7 		"/>
		<polygon class="st2" points="251.9,324.7 251.6,376.1 201.4,355.5 		"/>
		<polygon class="st0" points="201.4,355.5 201.1,375.3 251.6,376.1 		"/>
		<polygon class="st1" points="303.7,155.5 337.8,208.4 357.6,185 		"/>
		<polygon class="st0" points="337.8,208.4 329.7,213.2 303.7,155.5 		"/>
		<polygon class="st2" points="303.7,155.5 279,220.6 329.7,213.2 		"/>
		<polygon class="st1" points="303.7,155.5 251.6,220.7 279,220.6 		"/>
		<polygon class="st0" points="252,171.1 303.7,155.5 251.6,220.7 		"/>
		<polygon class="st1" points="279,220.6 337.8,262.1 329.7,213.2 		"/>
		<polygon class="st2" points="337.8,262.1 292,300.2 279,220.6 		"/>
		<polyline class="st1" points="292,300.2 299.6,346.4 350.6,346.4 		"/>
		<polygon class="st2" points="350.6,346.4 304.5,375.7 299.6,346.4 		"/>
		<polygon class="st0" points="350.6,345.7 304.5,375.7 356.7,375.4 		"/>
	</g>
</g>
</svg>
